# xmcd
#
# Track frame offsets:
#	150
#	19766
#	37235
#	51996
#	68322
#	82083
#	97777
#	113747
#	132557
#	152489
#	168739
#	189306
#	206291
#	223743
#	239008
#	259657
#	277846
#	296926
#
# Disc length: 4181 seconds
#
# Revision: 0
# Processed by: cddbd v1.5.2PL0 Copyright (c) Steve Scherf et al.
# Submitted via: EasyCDDAExtractor 12.0.7.1
#
DISCID=07105312
DTITLE=Сергей Трофимов - Аллея шансона
DYEAR=2011
DGENRE=Chanson
TTITLE0=Остров по имени "Счастье"
TTITLE1=Не рассказывай
TTITLE2=Московская
TTITLE3=Все не важно
TTITLE4=Город Сочи
TTITLE5=Не зря говорила тебе мама
TTITLE6=Плюшевый мишка
TTITLE7=Зима на пороге
TTITLE8=Первая любовь
TTITLE9=Ангел-хранитель
TTITLE10=Не покидай меня
TTITLE11=Весенний блюз
TTITLE12=Умничка
TTITLE13=Город в пробках
TTITLE14=Ностальгия
TTITLE15=Дождливый этюд
TTITLE16=Царство Божие
TTITLE17=Родина
EXTD=
EXTT0=
EXTT1=
EXTT2=
EXTT3=
EXTT4=
EXTT5=
EXTT6=
EXTT7=
EXTT8=
EXTT9=
EXTT10=
EXTT11=
EXTT12=
EXTT13=
EXTT14=
EXTT15=
EXTT16=
EXTT17=
PLAYORDER=
